<?xml version="1.0" standalone="no"?>
<!DOCTYPE svg PUBLIC "-//W3C//DTD SVG 20010904//EN"
 "http://www.w3.org/TR/2001/REC-SVG-20010904/DTD/svg10.dtd">
<svg version="1.0" xmlns="http://www.w3.org/2000/svg"
 width="16.000000pt" height="16.000000pt" viewBox="0 0 16.000000 16.000000"
 preserveAspectRatio="xMidYMid meet">
<metadata>
Created by potrace 1.11, written by Peter Selinger 2001-2013
</metadata>
<g transform="translate(0.000000,16.000000) scale(0.008000,-0.008000)"
fill="#000000" stroke="none">
<path d="M911 1973 c-28 -26 -36 -54 -110 -358 -45 -181 -86 -349 -92 -371
-17 -64 -101 -183 -151 -214 -40 -25 -45 -26 -78 -13 -31 13 -42 27 -89 126
-63 129 -190 330 -219 346 -48 26 -113 5 -135 -42 -19 -39 -14 -68 27 -142 71
-127 87 -164 116 -269 17 -60 57 -172 90 -250 32 -78 61 -159 64 -181 6 -44
63 -450 71 -505 7 -45 30 -79 61 -90 37 -14 457 -13 488 1 32 15 52 59 60 129
12 103 4 92 281 399 22 25 49 55 61 67 12 13 67 37 130 58 284 92 441 150 462
170 45 43 24 134 -36 157 -28 11 -89 -2 -435 -95 l-128 -35 -11 25 c-13 28
-29 6 162 219 324 361 299 331 300 367 1 69 -50 115 -115 102 -27 -5 -73 -47
-252 -231 -120 -124 -221 -231 -225 -237 -5 -7 -12 -4 -22 9 -13 18 -10 26 23
90 21 38 61 113 88 165 28 52 71 133 95 180 130 245 137 267 95 315 -14 17
-36 28 -63 32 -36 5 -45 1 -72 -23 -16 -16 -48 -63 -70 -104 -22 -41 -88 -163
-148 -270 -60 -107 -118 -212 -129 -233 -14 -26 -26 -37 -42 -37 -25 0 -27 7
-13 65 5 22 12 56 15 75 3 19 16 87 30 150 74 353 79 386 65 419 -25 62 -101
79 -149 34z"/>
</g>
</svg>
